<svg xmlns="http://www.w3.org/2000/svg" version="1.1" xmlns:xlink="http://www.w3.org/1999/xlink" xmlns:svgjs="http://svgjs.dev/svgjs" width="1000" height="1000" viewBox="0 0 1000 1000"><rect width="1000" height="1000" fill="#000000"></rect><g transform="matrix(0.7,0,0,0.7,149.57575757575756,282.1265587044535)"><svg viewBox="0 0 396 247" data-background-color="#0c3633" preserveAspectRatio="xMidYMid meet" height="623" width="1000" xmlns="http://www.w3.org/2000/svg" xmlns:xlink="http://www.w3.org/1999/xlink"><g id="tight-bounds" transform="matrix(1,0,0,1,0.2400000000000091,-0.09999999999999432)"><svg viewBox="0 0 395.52 247.2" height="247.2" width="395.52"><g><svg></svg></g><g><svg viewBox="0 0 395.52 247.2" height="247.2" width="395.52"><g transform="matrix(1,0,0,1,75.54432,98.69853502706985)"><svg viewBox="0 0 244.43135999999998 49.802929945860285" height="49.802929945860285" width="244.43135999999998"><g><svg viewBox="0 0 244.43135999999998 49.802929945860285" height="49.802929945860285" width="244.43135999999998"><g><svg viewBox="0 0 244.43136 49.80292994586029" height="49.802929945860285" width="244.43135999999998"><g><svg viewBox="0 0 244.43136 49.80292994586029" height="49.80292994586029" width="244.43136"><g><svg viewBox="0 0 244.43136 49.80292994586029" height="49.80292994586029" width="244.43136"><g><svg viewBox="0 0 244.43136 49.80292994586029" height="49.80292994586029" width="244.43136"><g transform="matrix(1,0,0,1,0,0)"><svg width="244.43136" viewBox="2.86 -35.96 184.86999999999998 37.67" height="49.80292994586029" data-palette-color="#f9cc0b"><path d="M8.62 1.27L4.17 1.27Q3.91 1.22 3.78 1 3.66 0.78 3.66 0.51L3.66 0.51Q3.66 0.29 3.76 0.12L3.76 0.12 6.76-5.62Q6.79-5.71 6.85-6.37 6.91-7.03 6.98-8.02 7.06-9.01 7.14-10.23 7.23-11.45 7.32-12.65 7.42-13.84 7.51-14.93 7.59-16.02 7.67-16.75L7.67-16.75Q7.69-17.04 7.74-17.64 7.79-18.24 7.84-19.02 7.89-19.8 7.96-20.7 8.03-21.61 8.11-22.51L8.11-22.51 8.45-27.61Q7.79-27.47 7.08-27.31 6.37-27.15 5.7-27.03 5.03-26.9 4.43-26.82 3.83-26.73 3.39-26.73L3.39-26.73Q3.13-26.73 2.99-26.98 2.86-27.22 2.86-27.49L2.86-27.49Q2.86-27.81 3-27.95L3-27.95 9.2-33.74Q9.96-34.42 10.71-34.85 11.45-35.28 12.5-35.52 13.55-35.77 15.08-35.85 16.6-35.94 18.95-35.94L18.95-35.94Q22.95-35.94 26.05-35.11 29.15-34.28 31.3-32.74L31.3-32.74Q32.89-31.64 34.13-30.44 35.38-29.25 36.23-27.8 37.08-26.34 37.52-24.6 37.96-22.85 37.96-20.65L37.96-20.65Q37.96-16.48 36.72-13.23 35.47-9.99 33.33-7.56 31.18-5.13 28.31-3.44 25.44-1.76 22.18-0.71 18.92 0.34 15.44 0.81 11.96 1.27 8.62 1.27L8.62 1.27ZM18.36-28.13L18.36-28.13 18.07-25.17Q17.92-23.63 17.76-21.89 17.6-20.14 17.46-18.35 17.31-16.55 17.16-14.81 17.02-13.06 16.89-11.55 16.77-10.03 16.67-8.84 16.58-7.64 16.5-6.93L16.5-6.93 16.43-6.2Q19.38-6.2 21.42-7.15 23.46-8.11 24.73-9.78 26-11.45 26.57-13.7 27.15-15.94 27.15-18.53L27.15-18.53Q27.15-20.39 26.64-22.11 26.12-23.83 25.15-25.39L25.15-25.39Q24.17-26.95 22.75-27.73 21.34-28.52 19.56-28.52L19.56-28.52Q19.26-28.52 18.92-28.38 18.58-28.25 18.36-28.13ZM41.09 0.78L41.09 0.78 42.31-15.92Q42.92-24.32 43.21-28.25 43.5-32.18 43.5-32.15L43.5-32.15Q43.53-32.59 43.55-32.89 43.58-33.18 43.65-33.37 43.72-33.57 43.85-33.67 43.97-33.76 44.21-33.81L44.21-33.81 52.66-35.84Q52.98-35.94 53.32-35.94L53.32-35.94Q53.66-35.94 53.78-35.73 53.9-35.52 53.9-34.89L53.9-34.89Q53.73-33.37 53.64-32.06 53.54-30.74 53.48-29.54 53.42-28.34 53.37-27.23 53.32-26.12 53.24-25.02L53.24-25.02Q53.1-23.83 52.99-22.63 52.88-21.44 52.78-20.15 52.68-18.87 52.57-17.44 52.46-16.02 52.32-14.33L52.32-14.33 51.24-1.46Q51.22-1.25 51.16-1.04 51.1-0.83 50.83-0.71L50.83-0.71Q50.8-0.71 50.53-0.61 50.27-0.51 49.83-0.35 49.39-0.2 48.8-0.02 48.22 0.15 47.56 0.29L47.56 0.29Q46.46 0.54 45.64 0.78 44.82 1.03 44.19 1.23 43.55 1.44 43.02 1.56 42.48 1.68 41.94 1.68L41.94 1.68Q41.57 1.68 41.33 1.49 41.09 1.29 41.09 0.78ZM78.97-20.26L78.97-20.26Q78.88-19.92 78.61-19.3 78.34-18.68 77.99-17.9 77.63-17.11 77.23-16.22 76.83-15.33 76.44-14.43L76.44-14.43Q76.29-14.09 76.17-13.93 76.04-13.77 75.78-13.7 75.51-13.62 75.03-13.61 74.56-13.6 73.7-13.57L73.7-13.57 70.31-13.5 69.62-6.03 82.15-6.03 82.15-5.08Q82.1-5.03 81.73-4.43 81.37-3.83 80.88-3 80.39-2.17 79.85-1.33 79.32-0.49 78.95 0.02L78.95 0.02Q78.71 0.46 78.39 0.72 78.07 0.98 77.69 1.1 77.31 1.22 76.86 1.25 76.41 1.27 75.87 1.27L75.87 1.27Q73.68 1.27 71.3 1.17 68.92 1.07 66.55 0.93 64.18 0.78 61.92 0.6 59.66 0.42 57.73 0.22L57.73 0.22Q57.56 0.2 57.43 0.02 57.29-0.15 57.29-0.37L57.29-0.37Q57.2-0.37 57.43-0.78 57.66-1.2 58.08-1.86 58.49-2.51 58.99-3.36 59.49-4.2 59.96-5.05L59.96-5.05 60.35-10.55Q60.44-11.94 60.51-12.62 60.57-13.31 60.57-13.35L60.57-13.35Q59.1-13.38 58.38-13.5 57.66-13.62 57.66-14.04L57.66-14.04Q57.66-14.23 58.02-14.77 58.37-15.31 58.88-16 59.39-16.7 59.97-17.46 60.54-18.21 60.98-18.85L60.98-18.85 61.59-27.15 61.52-27.15Q60.98-27.12 60.54-27.11 60.1-27.1 59.74-27.1L59.74-27.1Q58.56-27.1 58.06-27.23 57.56-27.37 57.56-27.73L57.56-27.73Q57.56-27.91 57.86-28.44 58.15-28.98 58.59-29.68 59.03-30.37 59.52-31.14 60-31.91 60.4-32.57L60.4-32.57 61.86-35.06 72.07-35.06 84.1-35.94Q84.13-35.94 84.24-35.93 84.35-35.91 84.47-35.85 84.59-35.79 84.7-35.64 84.81-35.5 84.81-35.23L84.81-35.23 84.44-33.96Q84.27-33.42 84.03-32.82 83.78-32.23 83.49-31.59L83.49-31.59 82.42-28.76Q82.25-28.34 82.03-28.13 81.81-27.91 81.1-27.88L81.1-27.88Q79.24-27.83 76.96-27.72 74.68-27.61 71.72-27.51L71.72-27.51Q71.63-27.17 71.63-26.97 71.63-26.76 71.58-26.17L71.58-26.17 71.45-25.05Q71.41-24.27 71.31-23.36 71.21-22.46 71.06-21.14L71.06-21.14Q72.31-21.19 73.49-21.24 74.68-21.29 75.65-21.33 76.63-21.36 77.35-21.39 78.07-21.41 78.36-21.41L78.36-21.41Q78.56-21.41 78.8-21.26 79.05-21.12 79.05-20.7L79.05-20.7Q79.05-20.51 78.97-20.26ZM91.5 0.88L91.5 0.78Q91.62-1 91.74-2.66 91.86-4.32 91.96-5.88L91.96-5.88 92.84-17.41Q92.99-18.73 93.08-19.81 93.18-20.9 93.24-21.94 93.3-22.97 93.36-24.04 93.43-25.1 93.5-26.39L93.5-26.39Q92.69-26.42 91.8-26.42 90.91-26.42 89.93-26.42L89.93-26.42 85.22-26.42Q84.95-26.42 84.89-26.62 84.83-26.83 84.83-27L84.83-27 84.83-27.17 87.52-34.23 87.49-34.33Q87.49-34.45 87.65-34.53 87.81-34.62 88.37-34.67L88.37-34.67Q91.74-34.86 94.9-35.05 98.06-35.23 101.15-35.38 104.24-35.52 107.33-35.67 110.42-35.82 113.69-35.94L113.69-35.94Q113.98-35.94 114.31-35.86 114.64-35.79 114.64-35.33L114.64-35.33Q114.64-35.28 114.62-35.23 114.59-35.18 114.59-35.13L114.59-35.13Q114.2-34.13 113.87-33.23 113.54-32.32 113.22-31.45 112.91-30.57 112.58-29.66 112.25-28.76 111.86-27.76L111.86-27.76Q111.83-27.73 111.76-27.53 111.69-27.32 111.54-27.06 111.39-26.81 111.15-26.59 110.91-26.37 110.54-26.34L110.54-26.34Q110.42-26.37 110.3-26.37 110.17-26.37 110.03-26.37L110.03-26.37 103.51-26.37Q103.39-25.12 103.28-23.73 103.17-22.34 103.02-21.02L103.02-21.02 101.24-1.95Q101.21-1.73 101.15-1.51 101.09-1.29 100.82-1.2L100.82-1.2 93.91 1.29Q93.64 1.39 93.21 1.54 92.77 1.68 92.35 1.68L92.35 1.68Q92.01 1.68 91.75 1.51 91.5 1.34 91.5 0.88L91.5 0.88ZM114.44 0.78L114.44 0.78 115.66-15.92Q116.27-24.32 116.57-28.25 116.86-32.18 116.86-32.15L116.86-32.15Q116.88-32.59 116.91-32.89 116.93-33.18 117.01-33.37 117.08-33.57 117.2-33.67 117.32-33.76 117.57-33.81L117.57-33.81 126.02-35.84Q126.33-35.94 126.67-35.94L126.67-35.94Q127.02-35.94 127.14-35.73 127.26-35.52 127.26-34.89L127.26-34.89Q127.09-33.37 126.99-32.06 126.89-30.74 126.83-29.54 126.77-28.34 126.72-27.23 126.67-26.12 126.6-25.02L126.6-25.02Q126.45-23.83 126.34-22.63 126.24-21.44 126.14-20.15 126.04-18.87 125.93-17.44 125.82-16.02 125.67-14.33L125.67-14.33 124.6-1.46Q124.57-1.25 124.51-1.04 124.45-0.83 124.18-0.71L124.18-0.71Q124.16-0.71 123.89-0.61 123.62-0.51 123.18-0.35 122.74-0.2 122.16-0.02 121.57 0.15 120.91 0.29L120.91 0.29Q119.81 0.54 119 0.78 118.18 1.03 117.54 1.23 116.91 1.44 116.37 1.56 115.83 1.68 115.3 1.68L115.3 1.68Q114.93 1.68 114.69 1.49 114.44 1.29 114.44 0.78ZM155.07-20.07L155.07-20.07Q154.97-19.7 154.7-19.02 154.43-18.33 154.09-17.47 153.75-16.6 153.33-15.64 152.92-14.67 152.53-13.75L152.53-13.75Q152.36-13.33 152.12-13.13 151.89-12.94 151.18-12.92L151.18-12.92 144.05-12.79 143.18-1.95Q143.15-1.73 143.05-1.53 142.96-1.32 142.76-1.2L142.76-1.2Q142.69-1.15 142.19-0.92 141.69-0.68 140.93-0.37 140.17-0.05 139.27 0.32 138.37 0.68 137.49 0.99 136.61 1.29 135.88 1.5 135.14 1.71 134.73 1.71L134.73 1.71Q134.24 1.71 133.84 1.53 133.43 1.34 133.43 0.78L133.43 0.78Q133.41-0.44 133.5-1.92 133.58-3.39 133.7-4.92 133.83-6.45 133.97-7.92 134.12-9.4 134.22-10.62L134.22-10.62 134.39-12.67Q132.34-12.67 131.46-12.78 130.58-12.89 130.58-13.35L130.58-13.35Q130.58-13.67 130.94-14.18L130.94-14.18Q131.46-14.89 132.1-15.89 132.75-16.89 133.35-17.85 133.95-18.8 134.4-19.53 134.85-20.26 134.97-20.43L134.97-20.43 135.44-27.15Q134.97-27.15 134.63-27.14 134.29-27.12 134.01-27.11 133.73-27.1 133.48-27.09 133.24-27.08 132.97-27.08L132.97-27.08Q131.8-27.08 131.3-27.21 130.8-27.34 130.8-27.71L130.8-27.71Q130.8-27.88 131.09-28.42 131.38-28.96 131.81-29.65 132.24-30.35 132.74-31.12 133.24-31.88 133.63-32.54L133.63-32.54 135.09-35.03 146.2-35.42Q148.35-35.5 150.48-35.58 152.6-35.67 154.39-35.74 156.19-35.82 157.48-35.88 158.78-35.94 159.29-35.96L159.29-35.96Q159.31-35.96 159.42-35.95 159.53-35.94 159.66-35.88 159.78-35.82 159.89-35.67 160-35.52 160-35.25L160-35.25Q160-35.11 159.66-34.28 159.31-33.45 158.68-31.81L158.68-31.81 157.6-28.98Q157.43-28.56 157.21-28.34 156.99-28.13 156.29-28.1L156.29-28.1Q155.46-28.08 154.6-28.03 153.75-27.98 152.84-27.93L152.84-27.93 145.42-27.56Q145.28-26.61 145.21-26.15 145.15-25.68 145.14-25.38 145.13-25.07 145.13-24.77 145.13-24.46 145.1-23.8L145.1-23.8Q145.08-23.34 145.04-23.02 145.01-22.71 144.97-22.4 144.93-22.09 144.9-21.75 144.86-21.41 144.84-20.9L144.84-20.9Q146.45-20.95 148-21 149.55-21.04 150.85-21.09 152.16-21.14 153.11-21.18 154.06-21.22 154.46-21.22L154.46-21.22Q154.65-21.22 154.89-21.07 155.14-20.92 155.14-20.51L155.14-20.51Q155.14-20.31 155.07-20.07ZM159.65-32.52L159.65-32.52Q159.8-32.62 160.15-32.78 160.51-32.93 160.98-33.13 161.46-33.33 162.01-33.56 162.56-33.79 163.12-34.01L163.12-34.01 165.95-35.13Q166.27-35.28 166.54-35.28L166.54-35.28Q166.73-35.28 166.96-35.17 167.2-35.06 167.49-34.77L167.49-34.77 173.13-23.83 173.28-24.19 175.69-28.66Q176.16-29.49 176.61-30.3 177.06-31.1 177.41-31.74 177.77-32.37 178.01-32.76 178.26-33.15 178.31-33.15L178.31-33.15 186.68-35.25Q186.97-35.33 187.17-35.33L187.17-35.33Q187.73-35.33 187.73-34.81L187.73-34.81Q187.7-34.69 187.68-34.48 187.66-34.28 187.53-34.03L187.53-34.03 180.36-20.73Q179.82-19.73 179.27-18.73 178.72-17.72 178.21-16.83 177.69-15.94 177.29-15.21 176.89-14.48 176.65-14.01L176.65-14.01 176.47-13.21 175.11-4.05Q175.03-3.64 174.99-3.37 174.94-3.1 174.85-2.93 174.77-2.76 174.63-2.64 174.5-2.51 174.25-2.39L174.25-2.39 167.32 1.25Q166.93 1.44 166.5 1.56 166.07 1.68 165.68 1.68L165.68 1.68Q165.27 1.68 164.98 1.5 164.68 1.32 164.68 0.9L164.68 0.9 164.68 0.81Q164.78-0.59 165.04-2.43 165.29-4.27 165.59-6.03L165.59-6.03 166.95-15.09Q166.56-15.92 165.93-17.29 165.29-18.65 164.56-20.24 163.83-21.83 163.03-23.51 162.24-25.2 161.55-26.7 160.85-28.2 160.3-29.35 159.75-30.49 159.48-31.03L159.48-31.03Q159.36-31.4 159.36-31.79L159.36-31.79Q159.36-32.01 159.42-32.21 159.48-32.42 159.65-32.52Z" opacity="1" transform="matrix(1,0,0,1,0,0)" fill="#ffffff" class="undefined-text-0" data-fill-palette-color="primary" id="text-0"></path></svg></g></svg></g></svg></g></svg></g><g></g></svg></g></svg></g></svg></g><g><path d="M81.172 86.941A122.216 122.216 0 0 1 314.348 86.941L309.857 86.941A117.724 117.724 0 0 0 85.663 86.941L81.172 86.941M81.172 160.259A122.216 122.216 0 0 0 314.348 160.259L309.857 160.259A117.724 117.724 0 0 1 85.663 160.259L81.172 160.259" fill="#f9cc0b" stroke="transparent" data-fill-palette-color="tertiary"></path></g></svg></g><defs></defs></svg><rect width="395.52" height="247.2" fill="none" stroke="none" visibility="hidden"></rect></g></svg></g></svg>